<mxfile host="app.diagrams.net" modified="2023-10-08T21:43:54.814Z" agent="Mozilla/5.0 (Windows NT 10.0; Win64; x64) AppleWebKit/537.36 (KHTML, like Gecko) Chrome/117.0.0.0 Safari/537.36 Edg/117.0.2045.60" version="22.0.4" etag="-Mt2GsDzIgYe_Oeyp9qV" type="github">
  <diagram name="Страница — 1" id="j_N4j1zOFGvI163ZcVhl">
    <mxGraphModel>
      <root>
        <mxCell id="0" />
        <mxCell id="1" parent="0" />
      </root>
    </mxGraphModel>
  </diagram>
</mxfile>
